<svg width="96" height="35" viewBox="0 0 96 35" fill="none" xmlns="http://www.w3.org/2000/svg">
    <mask id="mask0" mask-type="alpha" maskUnits="userSpaceOnUse" x="74" y="12" width="15" height="23">
        <path d="M74.8942 34.6113H88.799V12.4001H74.8947V34.6113H74.8942Z" fill="white"/>
    </mask>
    <g mask="url(#mask0)">
        <path fill-rule="evenodd" clip-rule="evenodd"
              d="M80.5895 31.1686C83.7956 29.3041 88.0102 22.6185 87.9131 19.6467C86.6192 24.3102 84.1905 28.1141 80.5895 31.1686ZM84.3376 16.1011L83.8514 19.1541C84.0329 17.63 84.2072 16.1138 83.9714 14.5823C83.8952 14.0891 83.7637 13.6055 83.6849 13.1134C83.651 12.9002 83.6041 12.5984 83.7152 12.4797C83.8211 12.3672 84.1378 12.3927 84.3408 12.4425C85.1516 12.6419 85.9425 12.9463 86.7627 13.0789C88.1208 13.2979 88.775 14.6035 88.7954 15.6567C88.8903 20.5334 87.1665 24.7366 84.1034 28.4662C81.9491 31.088 79.342 33.0841 76.2142 34.4003C76.0368 34.475 75.8573 34.5435 75.6768 34.6087C75.6486 34.6188 75.6095 34.5986 75.5667 34.5912L76.8919 33.7374L76.8523 33.6732L74.9823 34.3287L74.8942 34.1648L78.9533 31.4444L78.9105 31.3696L77.3025 32.1173L81.4399 28.2069L81.3606 28.1453C80.5973 28.6163 79.835 29.0872 79.0712 29.556C79.0258 29.5841 78.9689 29.5931 78.9496 29.5994L82.7129 24.9232L82.5736 24.8092L81.5009 26.0952L81.4206 26.0438L82.1197 24.9333L82.0206 24.8713L80.7204 26.486C82.6848 23.2671 84.4556 20.001 84.3376 16.1011Z"
              fill="#4F4F4F"/>
    </g>
    <path fill-rule="evenodd" clip-rule="evenodd"
          d="M91.5762 6.79371C89.1929 4.5484 86.3583 3.21734 83.1824 2.60962C83.4261 2.80053 83.6937 2.94742 83.9786 3.02643C84.2317 3.09696 84.5254 3.03545 84.7638 3.13143C85.7739 3.53977 86.8085 3.90939 87.7612 4.43439C89.0671 5.15401 90.3073 6.00143 91.5762 6.79424V6.79371ZM93.0209 10.4067L93.0668 10.8081H92.4569L90.263 8.96795L90.1623 9.09257L91.1943 10.1155L91.1264 10.1983L90.3459 9.58628L90.2807 9.66265L90.552 10.0339L87.5217 8.14545L87.4356 8.27272L88.1264 8.90272C84.1664 6.61022 80.1412 6.01999 75.8708 8.44666C75.8708 7.82833 75.7534 7.3256 75.8979 6.92469C76.127 6.28992 76.0012 5.6684 76.0398 5.04477C76.115 3.82772 76.6659 3.19878 77.7334 2.95856L77.2915 3.35681L77.3353 3.46924L80.3353 2.29568L80.281 2.71249H81.0861L81.0203 2.32007C81.6047 2.20499 81.6047 2.20499 82.4238 2.8859C82.487 2.32113 82.7864 2.24159 83.2795 2.31318C86.4543 2.76924 89.1762 4.24348 91.6586 6.2634C93.217 7.53136 94.5595 9.00507 95.5278 10.8134C95.6165 10.9799 95.6129 11.2 95.652 11.3946C95.2795 11.3363 95.2383 11.961 94.6957 11.7727C93.9527 11.515 93.6903 10.7498 93.0209 10.4067Z"
          fill="#4F4F4F"/>
    <path fill-rule="evenodd" clip-rule="evenodd"
          d="M72.6804 14.8766C69.7054 12.2876 67.5767 9.21401 67.2162 5.10628C67.3039 9.37045 69.4941 12.4176 72.6804 14.8766ZM75.288 12.7315C76.7364 14.2524 78.6084 15.0383 80.5216 15.7967C80.3442 16.2029 80.2289 16.6372 79.9837 16.9739C79.8011 17.2242 79.4724 17.4348 79.1713 17.5143C77.3223 18.0006 75.8061 16.9941 74.3087 16.2013C71.0061 14.4529 68.6922 11.7542 67.4552 8.16189C66.6997 5.96696 66.8604 3.74606 67.5507 1.57447C67.6529 1.2531 68.2154 1.01765 68.6114 0.873405C69.3762 0.593405 70.1693 0.389239 70.9592 0.186133C71.4715 0.0546174 71.6087 0.208936 71.4673 0.715375C70.1004 5.60583 71.8263 9.42295 75.4461 12.5809C75.7936 12.8842 76.1635 13.1611 76.522 13.4511C76.5272 13.4554 76.5178 13.4771 76.5027 13.5625L75.8891 13.1398C75.6893 13.003 75.4884 12.8678 75.288 12.7315Z"
          fill="#828282"/>
    <path fill-rule="evenodd" clip-rule="evenodd"
          d="M53.2957 20.2783C53.2884 21.4725 53.8492 22.0654 54.6251 21.8586C55.4682 21.6332 56.1021 21.113 56.34 20.2326C56.6844 18.9583 56.9823 17.6702 57.2666 16.38C57.3 16.2289 57.1664 15.9372 57.0318 15.8656C56.0771 15.3565 55.079 15.6434 54.4701 16.6276C53.7444 17.8023 53.5174 19.1519 53.2957 20.2783ZM61.2172 9.68704C61.1144 10.1945 61.0294 10.6437 60.9324 11.0902C60.3157 13.9173 59.7506 16.7581 59.0562 19.565C58.6774 21.0944 57.9418 22.4732 56.5018 23.2771C55.5125 23.8286 54.4388 24.0572 53.3165 23.9951C52.1708 23.932 51.3705 23.2474 51.0089 22.0728C50.5179 20.4782 50.9129 18.9504 51.3684 17.439C51.8327 15.8964 52.7838 14.7536 54.2056 14.0371C55.1103 13.5811 56.064 13.528 57.0407 13.6823C57.2979 13.7232 57.552 13.7868 57.8583 13.8505C58.092 12.7442 58.343 11.6709 58.5371 10.5864C58.6153 10.1516 58.7859 9.95378 59.2184 9.92144C59.855 9.87371 60.4884 9.77507 61.2172 9.68704Z"
          fill="#4F4F4F"/>
    <path fill-rule="evenodd" clip-rule="evenodd"
          d="M31.5715 15.6116L31.4776 15.4742C31.0164 15.7813 30.4357 15.9929 30.1159 16.4129C29.1637 17.6644 28.8392 19.189 28.7583 20.7327C28.7093 21.6735 29.5295 22.1253 30.3903 21.7599C31.1823 21.4237 31.6822 20.842 31.8742 19.9701C32.1089 18.908 32.3719 17.8526 32.6296 16.7963C32.8409 15.933 32.8065 15.8656 31.9655 15.6699C31.8366 15.6397 31.703 15.6307 31.5715 15.6116ZM33.3262 13.8711C33.5599 12.714 33.7889 11.6333 33.9924 10.5472C34.0608 10.1802 34.1787 9.96969 34.5955 9.94318C35.2707 9.90075 35.9416 9.78303 36.6955 9.68704C36.3835 11.1507 36.0924 12.5311 35.7955 13.9093C35.4194 15.6556 35.0667 17.4077 34.6467 19.1423C34.4792 19.8339 34.2032 20.5089 33.898 21.1522C32.7721 23.5258 30.5077 24.1479 28.5898 23.9792C27.4263 23.8774 26.5529 23.047 26.3651 21.7451C26.0364 19.4637 26.4695 17.3075 27.8855 15.4716C29.1465 13.8372 30.8463 13.3164 32.8289 13.755C32.975 13.7868 33.119 13.8223 33.3262 13.8711Z"
          fill="#4F4F4F"/>
    <path fill-rule="evenodd" clip-rule="evenodd"
          d="M42.7895 15.7065C41.7904 15.2324 40.9405 15.3496 40.2585 16.2209C39.1551 17.6315 38.6985 19.2898 38.8587 21.0785C38.9328 21.9042 39.5996 22.2043 40.3446 21.8517C41.0771 21.5054 41.5159 20.9024 41.7126 20.1388C42.0888 18.6752 42.429 17.2009 42.79 15.7065H42.7895ZM44.5535 22.5411C43.9827 22.9648 43.4422 23.3694 42.898 23.7698C42.4425 24.1055 42.2276 24.0614 41.9558 23.5577C41.8478 23.3561 41.7831 23.1318 41.7184 22.968C41.169 23.248 40.6478 23.6033 40.0733 23.791C37.9916 24.4692 36.4384 23.5083 36.2203 21.3235C35.9876 18.9912 36.622 16.8636 38.2342 15.1327C39.8171 13.432 41.8535 13.1717 44.014 13.5514C45.7399 13.8547 45.7441 13.8849 45.358 15.566C45.0272 17.0063 44.6688 18.4402 44.3281 19.8784C44.1142 20.782 43.9978 21.682 44.5535 22.5411Z"
          fill="#4F4F4F"/>
    <path fill-rule="evenodd" clip-rule="evenodd"
          d="M7.9044 20.9204L8.84823 22.6991C6.92562 24.0816 4.10301 24.4438 2.22736 23.4123C0.928225 22.698 0.287008 21.5017 0.200399 20.0306C0.0177902 16.9129 0.756573 14.0578 2.89727 11.7844C4.62579 9.94901 6.81918 9.36196 9.2364 9.85249C9.85518 9.97818 10.4291 10.3473 11.1303 10.6506C10.5199 11.3453 10.0294 11.9037 9.65953 12.3237C8.76423 12.163 7.98788 11.9233 7.20736 11.9085C6.18631 11.8894 5.33066 12.4176 4.79692 13.3191C3.60736 15.3311 2.95518 17.5191 3.13466 19.9044C3.23066 21.1792 3.90162 21.7917 5.12927 21.8373C6.12057 21.8745 7.02996 21.6003 7.90492 20.9199"
          fill="#4F4F4F"/>
    <path fill-rule="evenodd" clip-rule="evenodd"
          d="M12.2645 20.4071C12.2901 21.0864 12.2379 21.8018 12.9428 22.129C13.5793 22.4239 14.1903 22.1889 14.6129 21.6745C15.9094 20.0974 16.4077 18.2573 16.0998 16.2214C15.9955 15.5294 15.4195 15.2377 14.7459 15.3904C14.0645 15.5453 13.6711 16.0565 13.3268 16.6091C12.6005 17.7726 12.3532 19.0814 12.2645 20.4071ZM13.2511 24.0042C13.0967 24.0042 12.9428 24.0068 12.7884 24.0036C11.0353 23.9665 9.76644 22.9186 9.60887 21.1289C9.37253 18.4423 10.0644 16.057 12.3042 14.3988C13.403 13.5848 14.6906 13.2878 16.0377 13.4358C17.821 13.6309 18.935 14.9933 18.9558 17.0222C18.9725 18.6311 18.6005 20.1642 17.7736 21.5441C16.7442 23.2617 15.1852 24.0084 13.2511 24.0042Z"
          fill="#4F4F4F"/>
    <path fill-rule="evenodd" clip-rule="evenodd"
          d="M20.8592 13.9167L23.554 13.5206V14.8061C24.6642 13.8048 25.7651 13.1298 27.3042 13.5036C26.9421 14.2185 26.6249 14.8692 26.2775 15.5039C26.2268 15.5962 26.0322 15.6577 25.906 15.6545C24.4858 15.6222 23.6025 16.3248 23.3202 17.6983C22.9566 19.4695 22.5627 21.2349 22.2089 23.0077C22.138 23.3662 22.0028 23.4876 21.6392 23.4739C20.9453 23.4473 20.2498 23.4664 19.4781 23.4664C19.8079 21.8379 20.123 20.2634 20.447 18.6911C20.7684 17.1304 21.2228 15.584 20.8592 13.9167Z"
          fill="#4F4F4F"/>
    <path fill-rule="evenodd" clip-rule="evenodd"
          d="M46.0868 23.4606C46.3153 22.3114 46.5287 21.2227 46.7494 20.1356C47.1527 18.1395 47.5701 16.1456 47.9583 14.1458C48.0298 13.7773 48.1691 13.6383 48.54 13.6182C49.2673 13.5784 49.992 13.4803 50.7825 13.3992C50.4668 14.8745 50.171 16.2782 49.8658 17.6798C49.4859 19.4255 49.0852 21.167 48.7221 22.916C48.6371 23.3254 48.4978 23.5009 48.0616 23.4717C47.4271 23.4293 46.7885 23.4611 46.0868 23.4611"
          fill="#4F4F4F"/>
    <path fill-rule="evenodd" clip-rule="evenodd"
          d="M50.3864 9.68704C51.1889 9.76765 51.7607 10.1033 51.8202 10.5965C51.8812 11.1024 51.4466 11.6057 50.6796 11.7542C50.2461 11.8385 49.753 11.8279 49.3351 11.6985C49.0638 11.6136 48.7236 11.2557 48.6976 10.9905C48.6704 10.7195 48.9235 10.3149 49.1713 10.1452C49.5193 9.90659 49.9763 9.83235 50.3869 9.68704"
          fill="#4F4F4F"/>
</svg>