<svg width="252" height="91" viewBox="0 0 252 91" fill="none" xmlns="http://www.w3.org/2000/svg">
<mask id="mask0" mask-type="alpha" maskUnits="userSpaceOnUse" x="196" y="32" width="38" height="59">
<path d="M196.597 90.9782H233.097V32.5945H196.598V90.9782H196.597Z" fill="white"/>
</mask>
<g mask="url(#mask0)">
<path fill-rule="evenodd" clip-rule="evenodd" d="M211.547 81.9287C219.963 77.0276 231.026 59.4543 230.772 51.6426C227.375 63.9009 221 73.8996 211.547 81.9287ZM221.386 42.3227L220.11 50.3476C220.586 46.3415 221.044 42.3562 220.425 38.3305C220.225 37.0341 219.88 35.7629 219.673 34.4693C219.584 33.9089 219.46 33.1158 219.752 32.8035C220.03 32.508 220.862 32.5749 221.394 32.7059C223.523 33.2301 225.599 34.0302 227.752 34.3787C231.317 34.9544 233.034 38.3863 233.088 41.1546C233.337 53.9733 228.812 65.0216 220.771 74.8252C215.116 81.7169 208.272 86.9637 200.062 90.4234C199.596 90.62 199.125 90.7998 198.651 90.9712C198.577 90.9977 198.475 90.9447 198.362 90.9252L201.841 88.681L201.737 88.5123L196.828 90.2352L196.597 89.8045L207.252 82.6536L207.14 82.457L202.919 84.4225L213.779 74.1436L213.571 73.9819C211.568 75.2197 209.567 76.4575 207.562 77.6898C207.443 77.7636 207.293 77.7873 207.243 77.8041L217.121 65.5123L216.756 65.2126L213.94 68.5929L213.729 68.4577L215.564 65.5388L215.304 65.3757L211.891 69.6203C217.047 61.159 221.696 52.5738 221.386 42.3227Z" fill="#F2F2F2"/>
</g>
<path fill-rule="evenodd" clip-rule="evenodd" d="M240.387 17.8578C234.131 11.9558 226.69 8.45703 218.354 6.85957C218.993 7.36139 219.696 7.74751 220.444 7.95521C221.108 8.1406 221.879 7.97891 222.505 8.23121C225.156 9.30454 227.872 10.2761 230.373 11.6561C233.801 13.5477 237.057 15.7752 240.387 17.8591V17.8578ZM244.18 27.3547L244.3 28.4099H242.699L236.94 23.5729L236.676 23.9005L239.385 26.5894L239.207 26.8068L237.158 25.1982L236.987 25.399L237.699 26.3747L229.745 21.4109L229.519 21.7455L231.332 23.4015C220.937 17.3755 210.371 15.824 199.161 22.2027C199.161 20.5773 198.853 19.2559 199.232 18.2021C199.833 16.5335 199.503 14.8998 199.605 13.2605C199.802 10.0615 201.248 8.40824 204.05 7.77678L202.89 8.82363L203.005 9.11915L210.88 6.03436L210.738 7.13H212.851L212.678 6.09848C214.212 5.796 214.212 5.796 216.363 7.58581C216.528 6.10127 217.314 5.89218 218.609 6.08036C226.942 7.27915 234.087 11.1543 240.604 16.4638C244.695 19.7967 248.219 23.6705 250.761 28.4238C250.993 28.8615 250.984 29.44 251.086 29.9516C250.109 29.7982 250 31.4403 248.576 30.9455C246.626 30.268 245.937 28.2565 244.18 27.3547Z" fill="#E0E0E0"/>
<path fill-rule="evenodd" clip-rule="evenodd" d="M190.786 39.1042C182.977 32.299 177.389 24.2197 176.443 13.4223C176.673 24.6309 182.422 32.6405 190.786 39.1042ZM197.631 33.4657C201.433 37.4635 206.347 39.5293 211.369 41.5227C210.904 42.5904 210.601 43.7321 209.957 44.6172C209.478 45.2752 208.615 45.8286 207.825 46.0377C202.971 47.3159 198.991 44.6702 195.06 42.5863C186.391 37.9904 180.317 30.8967 177.07 21.4541C175.087 15.6846 175.509 9.84681 177.321 4.13863C177.589 3.2939 179.065 2.67499 180.105 2.29584C182.113 1.55984 184.194 1.02317 186.268 0.489293C187.613 0.143596 187.973 0.549233 187.602 1.88044C184.014 14.7354 188.544 24.7689 198.046 33.0698C198.958 33.8672 199.929 34.5948 200.87 35.3573C200.884 35.3684 200.859 35.4256 200.82 35.65L199.209 34.539C198.684 34.1794 198.157 33.824 197.631 33.4657Z" fill="#F2F2F2"/>
<path fill-rule="evenodd" clip-rule="evenodd" d="M139.901 53.3029C139.882 56.442 141.354 58.0005 143.391 57.4568C145.604 56.8644 147.268 55.497 147.892 53.183C148.796 49.8334 149.578 46.4475 150.325 43.056C150.412 42.6588 150.062 41.8921 149.708 41.7039C147.202 40.3657 144.582 41.1199 142.984 43.707C141.079 46.7946 140.483 50.3422 139.901 53.3029ZM160.695 25.4631C160.425 26.7971 160.202 27.9778 159.947 29.1515C158.329 36.5826 156.845 44.0499 155.022 51.428C154.028 55.4482 152.097 59.0724 148.317 61.1856C145.72 62.6353 142.902 63.2361 139.956 63.073C136.948 62.9071 134.847 61.1076 133.898 58.02C132.609 53.8284 133.646 49.8125 134.842 45.8397C136.061 41.7848 138.557 38.7808 142.29 36.8976C144.664 35.6988 147.168 35.5594 149.732 35.9651C150.407 36.0724 151.074 36.2397 151.878 36.407C152.491 33.4992 153.15 30.6779 153.66 27.8273C153.865 26.6842 154.313 26.1643 155.448 26.0793C157.119 25.9538 158.782 25.6945 160.695 25.4631Z" fill="#F2F2F2"/>
<path fill-rule="evenodd" clip-rule="evenodd" d="M82.8751 41.0362L82.6286 40.6752C81.4179 41.4823 79.8936 42.0385 79.054 43.1425C76.5546 46.4322 75.7027 50.4397 75.4904 54.4975C75.3617 56.9703 77.5146 58.158 79.7744 57.1976C81.8534 56.3138 83.1655 54.7846 83.6695 52.493C84.2858 49.701 84.976 46.927 85.6526 44.1503C86.2073 41.881 86.1169 41.7039 83.9091 41.1896C83.5709 41.1101 83.2203 41.0864 82.8751 41.0362ZM87.481 36.4613C88.0945 33.4197 88.6958 30.5789 89.2299 27.7241C89.4093 26.7595 89.7188 26.2061 90.8131 26.1364C92.5853 26.0249 94.3466 25.7154 96.3256 25.4631C95.5066 29.3104 94.7424 32.9388 93.9631 36.5617C92.9757 41.1519 92.0498 45.7575 90.9473 50.3171C90.5077 52.1348 89.7832 53.9093 88.982 55.6001C86.0265 61.8394 80.0826 63.4745 75.0481 63.0312C71.9939 62.7636 69.7013 60.5806 69.2082 57.1585C68.3454 51.1618 69.4821 45.494 73.1991 40.6682C76.5094 36.3721 80.9714 35.0033 86.1758 36.156C86.5592 36.2397 86.9372 36.3331 87.481 36.4613Z" fill="#F2F2F2"/>
<path fill-rule="evenodd" clip-rule="evenodd" d="M112.322 41.2857C109.7 40.0396 107.469 40.3476 105.678 42.6379C102.782 46.3457 101.583 50.7046 102.004 55.4063C102.198 57.5767 103.949 58.3657 105.904 57.4387C107.827 56.5285 108.979 54.9436 109.495 52.9363C110.483 49.089 111.376 45.2139 112.324 41.2857H112.322ZM116.953 59.2508C115.454 60.3646 114.036 61.4282 112.607 62.4806C111.411 63.363 110.847 63.2473 110.134 61.923C109.85 61.3933 109.68 60.8037 109.511 60.373C108.068 61.109 106.7 62.0429 105.192 62.5364C99.7277 64.3192 95.6505 61.7934 95.0781 56.0503C94.4672 49.9198 96.1326 44.3273 100.365 39.7775C104.52 35.3071 109.865 34.6227 115.537 35.6208C120.067 36.4181 120.078 36.4976 119.065 40.9163C118.196 44.7023 117.255 48.4715 116.361 52.2519C115.8 54.6271 115.494 56.9926 116.953 59.2508Z" fill="#F2F2F2"/>
<path fill-rule="evenodd" clip-rule="evenodd" d="M20.7489 54.991L23.2264 59.6662C18.1796 63.3002 10.7702 64.2523 5.84664 61.5411C2.43642 59.6634 0.753227 56.5187 0.525879 52.6519C0.0465313 44.457 1.98584 36.952 7.60516 30.9762C12.1425 26.1517 17.9002 24.6086 24.2454 25.898C25.8697 26.2284 27.3762 27.1986 29.2169 27.9959C27.6145 29.822 26.3271 31.2898 25.3561 32.3938C23.0059 31.9714 20.968 31.3414 18.9191 31.3023C16.2389 31.2522 13.9928 32.6405 12.5917 35.0102C9.46914 40.2988 7.75718 46.0502 8.22831 52.3202C8.48031 55.6712 10.2416 57.2812 13.4642 57.4011C16.0663 57.4987 18.4535 56.778 20.7502 54.9896" fill="#F2F2F2"/>
<path fill-rule="evenodd" clip-rule="evenodd" d="M32.1946 53.6416C32.2617 55.4272 32.1247 57.3077 33.975 58.1677C35.6459 58.9428 37.2496 58.3252 38.359 56.9731C41.7624 52.8275 43.0703 47.9906 42.2622 42.6392C41.9883 40.8201 40.4763 40.0535 38.7082 40.4549C36.9196 40.862 35.8869 42.2057 34.983 43.6582C33.0766 46.7165 32.4274 50.1568 32.1946 53.6416ZM34.7844 63.0967C34.379 63.0967 33.975 63.1037 33.5696 63.0953C28.9679 62.9977 25.6371 60.2433 25.2235 55.5388C24.6031 48.4771 26.4191 42.2071 32.2987 37.8483C35.183 35.7086 38.563 34.928 42.0993 35.3169C46.7804 35.8298 49.7045 39.4109 49.7592 44.7441C49.8031 48.9733 48.8266 53.0032 46.6558 56.6302C43.9537 61.1452 39.8614 63.1078 34.7844 63.0967Z" fill="#F2F2F2"/>
<path fill-rule="evenodd" clip-rule="evenodd" d="M54.7551 36.5812L61.8289 35.5399V38.9188C64.7434 36.2871 67.6331 34.5126 71.6734 35.4953C70.7229 37.3743 69.8902 39.0847 68.9781 40.7533C68.8452 40.9958 68.3344 41.1575 68.0029 41.1491C64.275 41.0641 61.9563 42.9111 61.2154 46.5214C60.2608 51.1771 59.2268 55.8176 58.2982 60.4775C58.1119 61.4198 57.7572 61.739 56.8026 61.7028C54.9811 61.6331 53.1555 61.6833 51.1299 61.6833C51.9954 57.4025 52.8227 53.2639 53.6732 49.1308C54.5168 45.0285 55.7097 40.9637 54.7551 36.5812Z" fill="#F2F2F2"/>
<path fill-rule="evenodd" clip-rule="evenodd" d="M120.978 61.6679C121.578 58.6472 122.138 55.7855 122.717 52.9279C123.776 47.6811 124.871 42.4399 125.89 37.1833C126.078 36.2146 126.444 35.8493 127.417 35.7964C129.327 35.6918 131.229 35.4339 133.304 35.2207C132.475 39.0986 131.699 42.7884 130.898 46.4725C129.901 51.0614 128.849 55.6391 127.895 60.2363C127.672 61.3124 127.307 61.7738 126.162 61.6972C124.496 61.5856 122.82 61.6693 120.978 61.6693" fill="#F2F2F2"/>
<path fill-rule="evenodd" clip-rule="evenodd" d="M132.264 25.4631C134.371 25.675 135.872 26.5574 136.028 27.8537C136.188 29.1836 135.047 30.5064 133.034 30.8967C131.896 31.1183 130.602 31.0905 129.505 30.7503C128.793 30.5273 127.9 29.5864 127.831 28.8894C127.76 28.1771 128.424 27.1136 129.075 26.6675C129.988 26.0402 131.188 25.8451 132.266 25.4631" fill="#F2F2F2"/>
</svg>
